<?xml version="1.0" encoding="UTF-8" standalone="no"?>
<!DOCTYPE svg PUBLIC "-//W3C//DTD SVG 1.1//EN"
 "http://www.w3.org/Graphics/SVG/1.1/DTD/svg11.dtd">
<!-- Generated by graphviz version 9.0.0 (20230911.1827)
 -->
<!-- Title: dependency&#45;cruiser output Pages: 1 -->
<svg width="164pt" height="235pt"
 viewBox="0.00 0.00 164.00 234.50" xmlns="http://www.w3.org/2000/svg" xmlns:xlink="http://www.w3.org/1999/xlink">
<g id="graph0" class="graph" transform="scale(1 1) rotate(0) translate(4 230.5)">
<title>dependency&#45;cruiser output</title>
<polygon fill="white" stroke="none" points="-4,4 -4,-230.5 160,-230.5 160,4 -4,4"/>
<g id="clust1" class="cluster">
<title>cluster_src</title>
<path fill="#ffffff" stroke="black" stroke-width="2" d="M20,-8C20,-8 136,-8 136,-8 142,-8 148,-14 148,-20 148,-20 148,-206.5 148,-206.5 148,-212.5 142,-218.5 136,-218.5 136,-218.5 20,-218.5 20,-218.5 14,-218.5 8,-212.5 8,-206.5 8,-206.5 8,-20 8,-20 8,-14 14,-8 20,-8"/>
<text text-anchor="middle" x="78" y="-205.95" font-family="Helvetica,sans-Serif" font-weight="bold" font-size="9.00">src</text>
</g>
<!-- src/app -->
<g id="node1" class="node">
<title>src/app</title>
<g id="a_node1"><a xlink:href="src/app" xlink:title="app">
<polygon fill="#ffffcc" stroke="black" points="91,-192 39.06,-192 37,-189.94 37,-173.5 88.94,-173.5 91,-175.56 91,-192"/>
<polyline fill="none" stroke="black" points="88.94,-189.94 37,-189.94"/>
<polyline fill="none" stroke="black" points="88.94,-189.94 88.94,-173.5"/>
<polyline fill="none" stroke="black" points="88.94,-189.94 91,-192"/>
<text text-anchor="start" x="56.12" y="-179.45" font-family="Helvetica,sans-Serif" font-size="9.00">app</text>
</a>
</g>
</g>
<!-- src/shared/ -->
<g id="node2" class="node">
<title>src/shared/</title>
<g id="a_node2"><a xlink:href="src/shared/" xlink:title="shared">
<polygon fill="#ffffcc" stroke="black" points="86,-34.5 34.06,-34.5 32,-32.44 32,-16 83.94,-16 86,-18.06 86,-34.5"/>
<polyline fill="none" stroke="black" points="83.94,-32.44 32,-32.44"/>
<polyline fill="none" stroke="black" points="83.94,-32.44 83.94,-16"/>
<polyline fill="none" stroke="black" points="83.94,-32.44 86,-34.5"/>
<text text-anchor="start" x="44.75" y="-21.95" font-family="Helvetica,sans-Serif" font-size="9.00">shared</text>
</a>
</g>
</g>
<!-- src/app&#45;&gt;src/shared/ -->
<g id="edge1" class="edge">
<title>src/app&#45;&gt;src/shared/</title>
<path fill="none" stroke="#000000" stroke-opacity="0.200000" d="M51.16,-173.04C37.24,-162.46 17,-143.21 17,-120.75 17,-120.75 17,-120.75 17,-87.25 17,-67.95 31.43,-50.32 43.38,-39.03"/>
<polygon fill="#000000" fill-opacity="0.200000" stroke="#000000" stroke-opacity="0.200000" points="47.06,-35.69 44.86,-40.72 46.11,-36.55 43.35,-39.05 43.35,-39.05 43.35,-39.05 46.11,-36.55 41.84,-37.38 47.06,-35.69"/>
</g>
<!-- src/pages/ -->
<g id="node3" class="node">
<title>src/pages/</title>
<g id="a_node3"><a xlink:href="src/pages/" xlink:title="pages">
<polygon fill="#ffffcc" stroke="black" points="112,-160.5 60.06,-160.5 58,-158.44 58,-142 109.94,-142 112,-144.06 112,-160.5"/>
<polyline fill="none" stroke="black" points="109.94,-158.44 58,-158.44"/>
<polyline fill="none" stroke="black" points="109.94,-158.44 109.94,-142"/>
<polyline fill="none" stroke="black" points="109.94,-158.44 112,-160.5"/>
<text text-anchor="start" x="72.25" y="-147.95" font-family="Helvetica,sans-Serif" font-size="9.00">pages</text>
</a>
</g>
</g>
<!-- src/app&#45;&gt;src/pages/ -->
<g id="edge2" class="edge">
<title>src/app&#45;&gt;src/pages/</title>
<path fill="none" stroke="#000000" stroke-opacity="0.200000" d="M70.19,-173.06C71.8,-170.8 73.57,-168.31 75.31,-165.86"/>
<polygon fill="#000000" fill-opacity="0.200000" stroke="#000000" stroke-opacity="0.200000" points="78.08,-161.97 77.01,-167.35 77.33,-163.02 75.18,-166.05 75.18,-166.05 75.18,-166.05 77.33,-163.02 73.35,-164.74 78.08,-161.97"/>
</g>
<!-- src/pages/&#45;&gt;src/shared/ -->
<g id="edge7" class="edge">
<title>src/pages/&#45;&gt;src/shared/</title>
<path fill="none" stroke="#000000" stroke-opacity="0.200000" d="M109.21,-141.61C114.89,-138.48 120.35,-134.35 124,-129 144.52,-98.94 153.85,-76.61 132,-47.5 122.85,-35.31 107.1,-29.79 92.56,-27.41"/>
<polygon fill="#000000" fill-opacity="0.200000" stroke="#000000" stroke-opacity="0.200000" points="87.64,-26.73 92.89,-25.18 88.91,-26.91 92.59,-27.41 92.59,-27.41 92.59,-27.41 88.91,-26.91 92.28,-29.64 87.64,-26.73"/>
</g>
<!-- src/entities/ -->
<g id="node4" class="node">
<title>src/entities/</title>
<g id="a_node4"><a xlink:href="src/entities/" xlink:title="entities">
<polygon fill="#ffffcc" stroke="black" points="126,-66 74.06,-66 72,-63.94 72,-47.5 123.94,-47.5 126,-49.56 126,-66"/>
<polyline fill="none" stroke="black" points="123.94,-63.94 72,-63.94"/>
<polyline fill="none" stroke="black" points="123.94,-63.94 123.94,-47.5"/>
<polyline fill="none" stroke="black" points="123.94,-63.94 126,-66"/>
<text text-anchor="start" x="84.38" y="-53.45" font-family="Helvetica,sans-Serif" font-size="9.00">entities</text>
</a>
</g>
</g>
<!-- src/pages/&#45;&gt;src/entities/ -->
<g id="edge6" class="edge">
<title>src/pages/&#45;&gt;src/entities/</title>
<path fill="none" stroke="#000000" stroke-opacity="0.200000" d="M105.27,-141.61C110.33,-138.42 115.13,-134.26 118,-129 128.16,-110.38 117.21,-86.02 108.22,-71.15"/>
<polygon fill="#000000" fill-opacity="0.200000" stroke="#000000" stroke-opacity="0.200000" points="105.69,-67.16 110.27,-70.18 106.38,-68.24 108.37,-71.38 108.37,-71.38 108.37,-71.38 106.38,-68.24 106.47,-72.59 105.69,-67.16"/>
</g>
<!-- src/features/ -->
<g id="node5" class="node">
<title>src/features/</title>
<g id="a_node5"><a xlink:href="src/features/" xlink:title="features">
<polygon fill="#ffffcc" stroke="black" points="84,-97.5 32.06,-97.5 30,-95.44 30,-79 81.94,-79 84,-81.06 84,-97.5"/>
<polyline fill="none" stroke="black" points="81.94,-95.44 30,-95.44"/>
<polyline fill="none" stroke="black" points="81.94,-95.44 81.94,-79"/>
<polyline fill="none" stroke="black" points="81.94,-95.44 84,-97.5"/>
<text text-anchor="start" x="40.5" y="-84.95" font-family="Helvetica,sans-Serif" font-size="9.00">features</text>
</a>
</g>
</g>
<!-- src/pages/&#45;&gt;src/features/ -->
<g id="edge8" class="edge">
<title>src/pages/&#45;&gt;src/features/</title>
<path fill="none" stroke="#000000" stroke-opacity="0.200000" d="M64.73,-141.61C59.67,-138.42 54.87,-134.26 52,-129 47.75,-121.21 48.98,-111.32 51.28,-103.36"/>
<polygon fill="#000000" fill-opacity="0.200000" stroke="#000000" stroke-opacity="0.200000" points="52.78,-98.86 53.33,-104.32 52.38,-100.08 51.19,-103.6 51.19,-103.6 51.19,-103.6 52.38,-100.08 49.06,-102.89 52.78,-98.86"/>
</g>
<!-- src/widgets/ -->
<g id="node6" class="node">
<title>src/widgets/</title>
<g id="a_node6"><a xlink:href="src/widgets/" xlink:title="widgets">
<polygon fill="#ffffcc" stroke="black" points="112,-129 60.06,-129 58,-126.94 58,-110.5 109.94,-110.5 112,-112.56 112,-129"/>
<polyline fill="none" stroke="black" points="109.94,-126.94 58,-126.94"/>
<polyline fill="none" stroke="black" points="109.94,-126.94 109.94,-110.5"/>
<polyline fill="none" stroke="black" points="109.94,-126.94 112,-129"/>
<text text-anchor="start" x="69.25" y="-116.45" font-family="Helvetica,sans-Serif" font-size="9.00">widgets</text>
</a>
</g>
</g>
<!-- src/pages/&#45;&gt;src/widgets/ -->
<g id="edge9" class="edge">
<title>src/pages/&#45;&gt;src/widgets/</title>
<path fill="none" stroke="#000000" stroke-opacity="0.200000" d="M85,-141.56C85,-139.66 85,-137.59 85,-135.52"/>
<polygon fill="#000000" fill-opacity="0.200000" stroke="#000000" stroke-opacity="0.200000" points="85,-130.7 87.25,-135.7 85,-131.98 85,-135.7 85,-135.7 85,-135.7 85,-131.98 82.75,-135.7 85,-130.7"/>
</g>
<!-- src/entities/&#45;&gt;src/shared/ -->
<g id="edge3" class="edge">
<title>src/entities/&#45;&gt;src/shared/</title>
<path fill="none" stroke="#000000" stroke-opacity="0.200000" d="M87.22,-47.06C83.59,-44.38 79.52,-41.38 75.63,-38.51"/>
<polygon fill="#000000" fill-opacity="0.200000" stroke="#000000" stroke-opacity="0.200000" points="71.82,-35.7 77.18,-36.86 72.85,-36.47 75.84,-38.67 75.84,-38.67 75.84,-38.67 72.85,-36.47 74.51,-40.48 71.82,-35.7"/>
</g>
<!-- src/features/&#45;&gt;src/shared/ -->
<g id="edge4" class="edge">
<title>src/features/&#45;&gt;src/shared/</title>
<path fill="none" stroke="#000000" stroke-opacity="0.200000" d="M55.86,-78.71C54.96,-70.65 54,-58.23 55,-47.5 55.21,-45.28 55.53,-42.94 55.91,-40.66"/>
<polygon fill="#000000" fill-opacity="0.200000" stroke="#000000" stroke-opacity="0.200000" points="56.77,-36.08 58.06,-41.41 56.54,-37.34 55.85,-40.99 55.85,-40.99 55.85,-40.99 56.54,-37.34 53.64,-40.58 56.77,-36.08"/>
</g>
<!-- src/features/&#45;&gt;src/entities/ -->
<g id="edge5" class="edge">
<title>src/features/&#45;&gt;src/entities/</title>
<path fill="none" stroke="#000000" stroke-opacity="0.200000" d="M69.37,-78.56C73.19,-75.88 77.46,-72.88 81.54,-70.01"/>
<polygon fill="#000000" fill-opacity="0.200000" stroke="#000000" stroke-opacity="0.200000" points="85.57,-67.18 82.77,-71.9 84.52,-67.92 81.48,-70.06 81.48,-70.06 81.48,-70.06 84.52,-67.92 80.19,-68.21 85.57,-67.18"/>
</g>
<!-- src/widgets/&#45;&gt;src/shared/ -->
<g id="edge12" class="edge">
<title>src/widgets/&#45;&gt;src/shared/</title>
<path fill="none" stroke="#000000" stroke-opacity="0.200000" d="M88.98,-110.21C92.32,-101.7 95.69,-88.56 90,-79 83.79,-68.58 73.09,-75.84 66,-66 60.78,-58.75 59.02,-48.86 58.57,-40.76"/>
<polygon fill="#000000" fill-opacity="0.200000" stroke="#000000" stroke-opacity="0.200000" points="58.48,-36.21 60.83,-41.16 58.5,-37.49 58.58,-41.21 58.58,-41.21 58.58,-41.21 58.5,-37.49 56.33,-41.25 58.48,-36.21"/>
</g>
<!-- src/widgets/&#45;&gt;src/entities/ -->
<g id="edge10" class="edge">
<title>src/widgets/&#45;&gt;src/entities/</title>
<path fill="none" stroke="#000000" stroke-opacity="0.200000" d="M93.27,-110.4C96.32,-106.75 99.42,-102.23 101,-97.5 103.7,-89.41 103.34,-79.88 102.23,-72.18"/>
<polygon fill="#000000" fill-opacity="0.200000" stroke="#000000" stroke-opacity="0.200000" points="101.39,-67.41 104.47,-71.95 101.61,-68.68 102.26,-72.34 102.26,-72.34 102.26,-72.34 101.61,-68.68 100.04,-72.73 101.39,-67.41"/>
</g>
<!-- src/widgets/&#45;&gt;src/features/ -->
<g id="edge11" class="edge">
<title>src/widgets/&#45;&gt;src/features/</title>
<path fill="none" stroke="#000000" stroke-opacity="0.200000" d="M76.75,-110.06C74.49,-107.68 71.99,-105.05 69.55,-102.47"/>
<polygon fill="#000000" fill-opacity="0.200000" stroke="#000000" stroke-opacity="0.200000" points="66.13,-98.86 71.2,-100.94 67.01,-99.79 69.57,-102.49 69.57,-102.49 69.57,-102.49 67.01,-99.79 67.94,-104.04 66.13,-98.86"/>
</g>
</g>
</svg>
